
<svg width="263px" height="222px" viewBox="0 0 263 222" version="1.1" xmlns="http://www.w3.org/2000/svg" xmlns:xlink="http://www.w3.org/1999/xlink">
    <g id="Page-1" stroke="none" stroke-width="1" fill="none" fill-rule="evenodd">
        <g id="logo" transform="translate(-0.000000, 0.000000)" fill-rule="nonzero">
            <path d="M89.438117,102 L11.4639103,102 L11.4639103,28.332 C11.4639103,25.95 13.4132654,24 15.7944777,24 L85.1075495,24 C87.4887618,24 89.438117,25.95 89.438117,28.332 L89.438117,102 Z" id="Path" fill="#5BE584"></path>
            <polygon id="Path" fill="#FFF8E6" points="39.6185969 24 61.2774323 24 61.2774323 34.836 39.6185969 34.836"></polygon>
            <path d="M251.384546,186 C251.384546,205.878 235.267878,222 215.396451,222 C195.525024,222 179.408356,205.878 179.408356,186 C179.408356,166.122 195.525024,150 215.396451,150 C235.267878,150 251.384546,166.122 251.384546,186" id="Path" fill="#586169"></path>
            <path d="M233.390499,186 C233.390499,195.942 225.341161,204 215.396451,204 C205.451741,204 197.402403,195.948 197.402403,186 C197.402403,176.052 205.451741,168 215.396451,168 C225.341161,168 233.390499,176.052 233.390499,186" id="Path" fill="#999999"></path>
            <path d="M218.407455,132 C193.557675,132 173.41034,153.492 173.41034,180 L257.232612,180 C260.693467,180 263.43456,176.724 262.942723,173.064 C259.793765,149.844 241.055963,132 218.407455,132 Z" id="Path" fill="#35C1F1"></path>
            <path d="M95.4361329,186 C95.4361329,205.878 79.3194642,222 59.4480375,222 C39.5766108,222 23.4599421,205.878 23.4599421,186 C23.4599421,166.122 39.5766108,150 59.4480375,150 C79.3194642,150 95.4361329,166.122 95.4361329,186" id="Path" fill="#586169"></path>
            <path d="M77.4420852,186 C77.4420852,195.942 69.3927478,204 59.4480375,204 C49.5033271,204 41.4539898,195.948 41.4539898,186 C41.4539898,176.052 49.5033271,168 59.4480375,168 C69.3927478,168 77.4420852,176.052 77.4420852,186" id="Path" fill="#999999"></path>
            <path d="M188.405379,42 L207.982903,42 C212.079548,42 215.396451,38.682 215.396451,34.584 L215.396451,7.416 C215.396451,3.318 212.079548,0 207.982903,0 L188.405379,0 C176.811215,0 167.412324,9.402 167.412324,21 L167.412324,21 C167.412324,32.598 176.811215,42 188.405379,42 Z" id="Path" fill="#35C1F1"></path>
            <path d="M191.404387,42 L179.408356,42 L155.416292,42 L155.416292,54 L177.321046,54 L158.979113,159.516 C158.727197,160.95 157.485607,162 156.022092,162 L120.561821,162 C119.320232,162 118.210599,161.238 117.760748,160.074 L96.9116448,105.846 C96.0239384,103.53 93.7986745,102 91.315496,102 L41.4539898,102 C19.9930889,112.734 3.33659872,137.868 0.0556840201,168.81 C-0.580105666,174.816 4.31427531,180 10.3542773,180 L167.412324,180 L179.408356,180 L227.392483,132 C225.197209,102.468 209.398435,60 191.404387,42 Z" id="Path" fill="#5BE584"></path>
            <path d="M137.422244,54 L155.416292,54 L155.416292,42 L137.422244,42 C134.111339,42 131.424228,44.688 131.424228,48 L131.424228,48 C131.424228,51.312 134.111339,54 137.422244,54 Z" id="Path" fill="#565B5E"></path>
            <path d="M8.46490231,114 L100.060603,114 L96.9176428,105.84 C96.0239384,103.524 93.7986745,102 91.321494,102 L8.46490231,102 C6.80944993,102 5.46589436,103.344 5.46589436,105 L5.46589436,111 C5.46589436,112.656 6.80944993,114 8.46490231,114 Z" id="Path" fill="#0078D4"></path>
        </g>
    </g>
</svg>